<svg xmlns="http://www.w3.org/2000/svg" viewBox="0 0 865.76 682.89"><path d="M435.75,589.34H421.2L366.06,385.61h48.85A50.34,50.34,0,0,1,428.09,417Z" fill="#171c80"/><g opacity="0.2"><path d="M435.75,589.34H421.2L366.06,385.61h48.85A50.34,50.34,0,0,1,428.09,417Z"/></g><rect x="388.27" y="47.85" width="308.66" height="202.96" rx="8.86" fill="#e1e1e5"/><rect x="401.29" y="90.74" width="283.38" height="147.82" fill="#fff"/><path d="M696.92,56.71V81.55H388.27V56.71a8.86,8.86,0,0,1,8.86-8.86H688.06A8.86,8.86,0,0,1,696.92,56.71Z" fill="#4796f2"/><circle cx="407.03" cy="65.08" r="5.74" fill="#171c80"/><circle cx="431.54" cy="65.08" r="5.74" fill="#f6cc5d"/><circle cx="447.62" cy="114.87" r="1.91" fill="#4796f2"/><circle cx="456.05" cy="114.87" r="1.91" fill="#4796f2"/><circle cx="463.71" cy="114.87" r="1.91" fill="#4796f2"/><circle cx="457.58" cy="65.08" r="5.74" fill="#fff"/><path d="M417.37,114.22a.47.47,0,0,1-.35-.15l-7.66-7.66a.49.49,0,0,1,0-.72L417,98.77a.49.49,0,0,1,.7,0,.5.5,0,0,1,0,.71l-7.27,6.57,7.28,7.28a.5.5,0,0,1,0,.71A.47.47,0,0,1,417.37,114.22Z" fill="#4796f2"/><path d="M432.69,114.22a.5.5,0,0,1-.34-.87l7.27-6.57-7.29-7.29a.5.5,0,0,1,0-.7.5.5,0,0,1,.71,0l7.66,7.65a.51.51,0,0,1,.15.37.53.53,0,0,1-.17.36L433,114.09A.46.46,0,0,1,432.69,114.22Z" fill="#4796f2"/><path d="M422,115a.57.57,0,0,1-.18,0,.5.5,0,0,1-.29-.64L427.35,99a.49.49,0,0,1,.64-.29.5.5,0,0,1,.29.65l-5.85,15.34A.48.48,0,0,1,422,115Z" fill="#4796f2"/><path d="M616.5,129.37H412.77a.5.5,0,0,1,0-1H616.5a.5.5,0,0,1,0,1Z" fill="#4796f2"/><path d="M645.63,129.37H629.1a.5.5,0,0,1,0-1h16.53a.5.5,0,0,1,0,1Z" fill="#4796f2"/><path d="M674.32,129.37h-21.6a.5.5,0,0,1,0-1h21.6a.5.5,0,0,1,0,1Z" fill="#4796f2"/><path d="M541,144.56H412.77a.51.51,0,0,1-.5-.5.5.5,0,0,1,.5-.5H541a.5.5,0,0,1,.5.5A.51.51,0,0,1,541,144.56Z" fill="#171c80"/><path d="M582.86,144.56H559.24a.5.5,0,0,1-.5-.5.5.5,0,0,1,.5-.5h23.62a.5.5,0,0,1,.5.5A.5.5,0,0,1,582.86,144.56Z" fill="#171c80"/><path d="M417.37,154h-4.6a.51.51,0,0,1-.5-.5.5.5,0,0,1,.5-.5h4.6a.5.5,0,0,1,.5.5A.5.5,0,0,1,417.37,154Z" fill="#171c80"/><path d="M417.37,165.53h-4.6a.5.5,0,0,1-.5-.5.51.51,0,0,1,.5-.5h4.6a.5.5,0,0,1,.5.5A.5.5,0,0,1,417.37,165.53Z" fill="#171c80"/><path d="M417.37,177h-4.6a.5.5,0,0,1-.5-.5.51.51,0,0,1,.5-.5h4.6a.5.5,0,0,1,.5.5A.5.5,0,0,1,417.37,177Z" fill="#171c80"/><path d="M417.37,188.51h-4.6a.5.5,0,0,1,0-1h4.6a.5.5,0,0,1,0,1Z" fill="#171c80"/><path d="M445.71,154H431.54a.5.5,0,0,1-.5-.5.5.5,0,0,1,.5-.5h14.17a.5.5,0,0,1,.5.5A.51.51,0,0,1,445.71,154Z" fill="#171c80"/><path d="M467.78,154H454.13a.51.51,0,0,1-.5-.5.5.5,0,0,1,.5-.5h13.65a.5.5,0,0,1,.5.5A.5.5,0,0,1,467.78,154Z" fill="#171c80"/><path d="M490.39,154H476.9a.5.5,0,0,1-.5-.5.5.5,0,0,1,.5-.5h13.49a.5.5,0,0,1,.5.5A.5.5,0,0,1,490.39,154Z" fill="#171c80"/><path d="M512.34,154H497.79a.5.5,0,0,1-.5-.5.5.5,0,0,1,.5-.5h14.55a.5.5,0,0,1,.5.5A.5.5,0,0,1,512.34,154Z" fill="#171c80"/><path d="M582.8,154H520.09a.5.5,0,0,1-.5-.5.51.51,0,0,1,.5-.5H582.8a.5.5,0,0,1,.5.5A.5.5,0,0,1,582.8,154Z" fill="#171c80"/><path d="M626.46,165.53H431.54a.5.5,0,0,1-.5-.5.5.5,0,0,1,.5-.5H626.46a.5.5,0,0,1,.5.5A.5.5,0,0,1,626.46,165.53Z" fill="#f6cc5d"/><path d="M484.77,177H431.54a.5.5,0,0,1-.5-.5.5.5,0,0,1,.5-.5h53.23a.5.5,0,0,1,.5.5A.5.5,0,0,1,484.77,177Z" fill="#f6cc5d"/><path d="M484.77,188.51H431.54a.5.5,0,1,1,0-1h53.23a.5.5,0,0,1,0,1Z" fill="#f6cc5d"/><path d="M484.77,198.74H431.54a.5.5,0,1,1,0-1h53.23a.5.5,0,0,1,0,1Z" fill="#f6cc5d"/><path d="M484.77,210.72H431.92a.5.5,0,0,1,0-1h52.85a.5.5,0,0,1,0,1Z" fill="#f6cc5d"/><path d="M629.1,210.72h-109a.5.5,0,0,1,0-1h109a.5.5,0,0,1,0,1Z" fill="#f6cc5d"/><path d="M629.1,198.74H582.86a.5.5,0,0,1,0-1H629.1a.5.5,0,0,1,0,1Z" fill="#f6cc5d"/><path d="M629.1,188.51H609.77a.5.5,0,0,1,0-1H629.1a.5.5,0,0,1,0,1Z" fill="#f6cc5d"/><path d="M663.52,165.53H635.16a.5.5,0,0,1-.5-.5.5.5,0,0,1,.5-.5h28.36a.5.5,0,0,1,.5.5A.5.5,0,0,1,663.52,165.53Z" fill="#f6cc5d"/><path d="M266.49,216.89s-43.66-5.14-49.78,33.92l-19.15,87.32s-9.19,24.5,18.38,28.33l86.55,2.3S323.17,363.4,327,319c0,0,2.3-23,3.83-35.23l14.56-11.49S333.12,216.49,304,216.8Z" fill="#4796f2"/><g opacity="0.2"><path d="M293.08,253c-11.37,0-23.14-11.16-23.68-11.68a.77.77,0,0,1,0-1.08.78.78,0,0,1,1.09,0c.13.13,13.71,13,25.09,11,4.54-.78,8.19-3.86,10.84-9.16a.76.76,0,0,1,1-.35.77.77,0,0,1,.35,1c-2.88,5.76-6.9,9.12-11.95,10A15.67,15.67,0,0,1,293.08,253Z"/></g><g opacity="0.2"><path d="M330.06,284.51a.77.77,0,0,1-.77-.73A374.06,374.06,0,0,0,325.47,244a.78.78,0,0,1,.64-.88.76.76,0,0,1,.87.64,374.41,374.41,0,0,1,3.84,39.92.75.75,0,0,1-.73.79Z"/></g><g opacity="0.2"><path d="M221.3,279.15l25.28,58.21s9.19,26,40.59,26l23.49,0s-1.28,2.28-8.17,5.34l-40-1.06a17,17,0,0,1-12-5.29C242.53,353.91,229,332.24,221.3,279.15Z"/></g><path d="M215.94,366.46S193,439.88,232,443.77h87.37l49,151.7H428L394.39,430s-2.29-42.89-34.46-50.55l-57.44-10.72Z" fill="#171c80"/><path d="M453.34,638.36H396.61a3.69,3.69,0,0,1-3.69-3.69v-39.2h35.2v13.07l27.59,23.36A3.67,3.67,0,0,1,453.34,638.36Z" fill="#4796f2"/><g opacity="0.2"><path d="M453.34,638.36H396.61a3.69,3.69,0,0,1-3.69-3.69v-39.2h35.2v13.07l27.59,23.36A3.67,3.67,0,0,1,453.34,638.36Z"/></g><path d="M414.31,620.74a.74.74,0,0,1-.59-.28.75.75,0,0,1,.1-1.07L427.63,608a.77.77,0,0,1,1,1.18L414.8,620.57A.83.83,0,0,1,414.31,620.74Z" fill="#fff"/><rect x="235.09" y="466.03" width="2.3" height="157.01" fill="#c8c8dc"/><rect x="376.01" y="351.91" width="54.38" height="11.49" fill="#171c80"/><rect x="344.31" y="294.98" width="7.89" height="1" transform="translate(-107.9 318) rotate(-43.14)" fill="red"/><path d="M423.58,349.94l-9.27-8.75,4.54,10.72H413l-6.64-5.49a5.55,5.55,0,0,0-4-1.26c-6.42.52-26.23.76-50-12.4l-25.43-12.14.14-1.34c.24-2.23.74-7,1.31-12.43,1-9,2.11-19.75,2.53-23.1l14.56-11.49,5.76,20.52L397,322.33a13,13,0,0,0,4.18,1.77l17.64,4.12a8.74,8.74,0,0,1,5,3.27l5.43,7.24Z" fill="#f4a892"/><path d="M330.51,90.23H292.08a.7.7,0,0,0-.7.7v24.13a.7.7,0,0,0,.7.7h3.71a.7.7,0,0,1,.7.7v6.63a.69.69,0,0,0,1.18.5l7.77-7.63a.68.68,0,0,1,.49-.2h24.58a.7.7,0,0,0,.7-.7V90.93A.7.7,0,0,0,330.51,90.23Z" fill="#4796f2"/><path d="M189.64,78.6h49.28a.89.89,0,0,1,.89.9v30.94a.89.89,0,0,1-.89.89h-4.76a.9.9,0,0,0-.9.9v8.51a.89.89,0,0,1-1.52.63l-10-9.78a.92.92,0,0,0-.63-.26H189.64a.89.89,0,0,1-.89-.89V79.5A.89.89,0,0,1,189.64,78.6Z" fill="#171c80"/><circle cx="263.3" cy="62.91" r="19.91" fill="#f6cc5d"/><circle cx="188.75" cy="153.8" r="19.91" fill="#f6cc5d"/><path d="M266.49,182.65v34.24s4.49,15.58,19.33,20a14.81,14.81,0,0,0,11-.8c3.35-1.72,6.79-5.17,7.18-12.06V210.22l-27.9-31.78Z" fill="#f4a892"/><path d="M304,210.22V224s-19.92-4.9-25.28-24.66Z" fill="#ef947f"/><path d="M328.14,167s3.07,47.48-24.51,46c0,0-32.55-1.91-30.25-36.38l1.53-28.34L327,157.37Z" fill="#f4a892"/><path d="M330.17,167.64a18,18,0,0,1-9.79.74c-5.16-1-13.95-3.91-24-12.54,0,0-3.6,17.59-17.88,20.28l-12,6.53v19.58H244.73s-2-2.73-4.28-11.92l-3.07-.77v11.08h-9.95S205,163.5,246.06,148.18A15.5,15.5,0,0,1,248.57,136a18.76,18.76,0,0,1,14.08-7.91c4.37-.36,10.2-.13,14.31,2.78h0a10.68,10.68,0,0,1,1.77,1.54s.81-.17,2.24-.39c8.38-1.25,38.13-4.09,52,16.19C333,148.18,343.43,162.65,330.17,167.64Z" fill="#070e3f"/><path d="M281,132s-10.66,3.94-22.15,17.73c0,0,1-16.32,18.13-18.88h0a10.68,10.68,0,0,1,1.77,1.54S279.55,132.21,281,132Z" fill="#4796f2"/><ellipse cx="269.94" cy="178.44" rx="8.81" ry="9.57" fill="#f4a892"/><path d="M402.3,345.16c-6.42.52-26.23.76-50-12.4l-25.43-12.14.14-1.34,1.26-12.46s0,0,.05,0C329.94,308,378.82,341.9,402.3,345.16Z" fill="#ef947f"/><path d="M232,302.89l14.56,34.47s10.72,26.81,40.59,26l68.17,0,13-6.91s17.62,9.19,19.15.76c0,0,10.72,4.6,9.19-2.29,0,0,9.19,2.29,5.36-3.83l-11.57-9.48a29.7,29.7,0,0,0-24.54-6.27,41.7,41.7,0,0,0-12.9,5s-37.92-10.82-64.53-14.6L268.7,283.75Z" fill="#f4a892"/><path d="M387.5,357.77a.52.52,0,0,1-.21,0l-11.49-5.36a.5.5,0,0,1-.24-.67.49.49,0,0,1,.66-.24l11.49,5.36a.5.5,0,0,1,.24.67A.48.48,0,0,1,387.5,357.77Z" fill="#ef947f"/><path d="M396.69,355.48a.49.49,0,0,1-.28-.09l-14.93-10.07a.5.5,0,0,1-.14-.69.51.51,0,0,1,.7-.14L397,354.56a.5.5,0,0,1,.14.69A.51.51,0,0,1,396.69,355.48Z" fill="#ef947f"/><path d="M232,303.66a.78.78,0,0,1-.68-.41.76.76,0,0,1,.33-1l36.05-18.82-15-35.35a.78.78,0,0,1,.41-1,.76.76,0,0,1,1,.41l15.23,36a.77.77,0,0,1-.35,1l-36.67,19.14A.8.8,0,0,1,232,303.66Z" fill="#4796f2"/><g opacity="0.2"><path d="M232,303.66a.78.78,0,0,1-.68-.41.76.76,0,0,1,.33-1l36.05-18.82-15-35.35a.78.78,0,0,1,.41-1,.76.76,0,0,1,1,.41l15.23,36a.77.77,0,0,1-.35,1l-36.67,19.14A.8.8,0,0,1,232,303.66Z"/></g><path d="M436.84,638.36H380a3.21,3.21,0,0,1-3.2-3.2V595.47H412v13.07l27.26,23.09A3.82,3.82,0,0,1,436.84,638.36Z" fill="#4796f2"/><path d="M398.22,620.74a.74.74,0,0,1-.59-.28.76.76,0,0,1,.1-1.07L411.55,608a.77.77,0,0,1,1.08.1.76.76,0,0,1-.11,1.08l-13.81,11.44A.79.79,0,0,1,398.22,620.74Z" fill="#fff"/><rect x="176.88" y="444.59" width="117.95" height="23.74" rx="11.87" fill="#f6cc5d"/><path d="M215.94,620h40.59a18.38,18.38,0,0,1,18.38,18.38v0a0,0,0,0,1,0,0H197.56a0,0,0,0,1,0,0v0A18.38,18.38,0,0,1,215.94,620Z" fill="#f6cc5d"/><polygon points="467.56 263.83 416.71 363.4 526.89 363.4 579.74 263.83 467.56 263.83" fill="#f6cc5d"/><path d="M516.66,639.89a1.53,1.53,0,0,1-1.29-.71l-160-252.75a1.53,1.53,0,0,1,2.59-1.64L518,637.54a1.54,1.54,0,0,1-1.3,2.35Z" fill="#f6cc5d"/><path d="M349.09,639.89a1.5,1.5,0,0,1-.81-.24,1.53,1.53,0,0,1-.48-2.11l160-252.75a1.55,1.55,0,0,1,2.12-.47,1.52,1.52,0,0,1,.47,2.11l-160,252.75A1.53,1.53,0,0,1,349.09,639.89Z" fill="#f6cc5d"/><rect x="287.17" y="363.4" width="292.57" height="22.21" fill="#c8c8dc"/><path d="M185.91,147.42v8.39a3.58,3.58,0,0,1-1,2.71,3.75,3.75,0,0,1-2.71,1,3.86,3.86,0,0,1-2.76-1,3.66,3.66,0,0,1-1.05-2.78h2.39a1.91,1.91,0,0,0,.37,1.2,1.41,1.41,0,0,0,2,0,1.71,1.71,0,0,0,.34-1.13v-8.39Z" fill="#fff"/><path d="M190.57,159.06a3.69,3.69,0,0,1-1.58-1.23,3.23,3.23,0,0,1-.6-1.9H191a1.64,1.64,0,0,0,.52,1.16,1.81,1.81,0,0,0,1.29.43,2,2,0,0,0,1.32-.4,1.31,1.31,0,0,0,.48-1.05,1.22,1.22,0,0,0-.33-.88,2.13,2.13,0,0,0-.81-.54,13.57,13.57,0,0,0-1.34-.43,14.45,14.45,0,0,1-1.89-.68,3.2,3.2,0,0,1-1.25-1,2.87,2.87,0,0,1-.53-1.81,3.23,3.23,0,0,1,.53-1.84,3.38,3.38,0,0,1,1.49-1.21,5.41,5.41,0,0,1,2.19-.42,4.75,4.75,0,0,1,3,.9,3.32,3.32,0,0,1,1.27,2.51h-2.63a1.42,1.42,0,0,0-.52-1,2,2,0,0,0-1.3-.4,1.67,1.67,0,0,0-1.12.36,1.27,1.27,0,0,0-.42,1,1.07,1.07,0,0,0,.32.79,2.22,2.22,0,0,0,.79.52,13.82,13.82,0,0,0,1.32.45,13.64,13.64,0,0,1,1.9.69,3.46,3.46,0,0,1,1.27,1,2.89,2.89,0,0,1,.53,1.8,3.31,3.31,0,0,1-.5,1.78A3.43,3.43,0,0,1,195.1,159a4.92,4.92,0,0,1-2.28.49A5.61,5.61,0,0,1,190.57,159.06Z" fill="#fff"/><path d="M198,90.8a5.8,5.8,0,0,1,2.17-2.17,6.27,6.27,0,0,1,3.09-.77,6.08,6.08,0,0,1,3.5,1,5.35,5.35,0,0,1,2.1,2.84H206.1A2.83,2.83,0,0,0,205,90.44a3.35,3.35,0,0,0-1.72-.43,3.48,3.48,0,0,0-1.85.49,3.3,3.3,0,0,0-1.27,1.37,5,5,0,0,0,0,4.16,3.36,3.36,0,0,0,1.27,1.39,3.57,3.57,0,0,0,1.85.49,3.36,3.36,0,0,0,1.72-.44,2.9,2.9,0,0,0,1.15-1.29h2.75A5.22,5.22,0,0,1,206.76,99a6.09,6.09,0,0,1-3.51,1,6.17,6.17,0,0,1-3.09-.78A5.7,5.7,0,0,1,198,97.1,6.18,6.18,0,0,1,197.2,94,6.26,6.26,0,0,1,198,90.8Z" fill="#4796f2"/><path d="M219.84,94.9h-3.23v3.31h-2.25V94.9h-3.23V92.81h3.23V89.5h2.25v3.31h3.23Z" fill="#4796f2"/><path d="M231.36,94.9h-3.23v3.31h-2.25V94.9h-3.23V92.81h3.23V89.5h2.25v3.31h3.23Z" fill="#4796f2"/><path d="M257.7,62.55a2.52,2.52,0,0,1-1.07,1,3.82,3.82,0,0,1-1.83.39h-1.51v3.45h-1.8v-9h3.31a4,4,0,0,1,1.78.36,2.53,2.53,0,0,1,1.1,1A2.84,2.84,0,0,1,258,61.2,2.76,2.76,0,0,1,257.7,62.55Zm-1.87-.39a1.27,1.27,0,0,0,.36-1c0-.87-.49-1.31-1.47-1.31h-1.43V62.5h1.43A1.55,1.55,0,0,0,255.83,62.16Z" fill="#fff"/><path d="M266.77,58.42v9H265V63.58h-3.85v3.83h-1.8v-9h1.8v3.69H265V58.42Z" fill="#fff"/><path d="M274.76,62.55a2.49,2.49,0,0,1-1.06,1,3.89,3.89,0,0,1-1.84.39h-1.51v3.45h-1.8v-9h3.31a4,4,0,0,1,1.78.36,2.53,2.53,0,0,1,1.1,1,2.84,2.84,0,0,1,.36,1.43A2.76,2.76,0,0,1,274.76,62.55Zm-1.87-.39a1.27,1.27,0,0,0,.36-1c0-.87-.49-1.31-1.47-1.31h-1.43V62.5h1.43A1.55,1.55,0,0,0,272.89,62.16Z" fill="#fff"/><path d="M303.24,98.32v8.22h-1.65V103h-3.52v3.5h-1.65V98.32h1.65v3.38h3.52V98.32Z" fill="#fff"/><path d="M310.46,98.32v1.33h-2.19v6.89h-1.65V99.65h-2.19V98.32Z" fill="#fff"/><path d="M320.63,98.32v8.22H319v-5.35l-2.2,5.35h-1.25l-2.22-5.35v5.35h-1.65V98.32h1.88l2.61,6.11,2.62-6.11Z" fill="#fff"/><path d="M323.9,105.24h2.71v1.3h-4.36V98.32h1.65Z" fill="#fff"/><path d="M553.54,473.53c-6.23-20.77-10.37-34-10.67-38.54,0,0-7.48,19.15-11.85,30-9.64,24-12,42.61-2,62.28,0,0,.06,10.74.15,11.22s11.07,11,11.07,11l16.51-10.17-1.13-17.91S559.77,494.3,553.54,473.53Z" fill="#166d4d"/><path d="M535.79,550l8.89,2.83s3.09-57.46-1.13-91.09C543.55,461.76,543.75,522.15,535.79,550Z" fill="#12563a"/><path d="M547.21,549.79s-15.5-42.15-53.18-53h0c-12.21-3.51-26.73-3.73-43.81,1.83,0,0,21-5.83,32.61,16.91.42.82.83,1.69,1.23,2.59,11.3,25.77,26.12,40.14,35.59,43.84,5.75,2.25,12.84,8,17.54,12.23,3,2.73,5.08,4.78,5.08,4.78l5.06-.83-.06-14.92Z" fill="#208c68"/><path d="M480.76,499c.68.25,22.25,8.55,56.43,75.21,3,2.73,5.08,4.78,5.08,4.78l5.06-.83-.06-14.92C538.71,547.64,513.44,506.61,480.76,499Z" fill="#166d4d"/><path d="M565.37,495.31h0c-31.73,19.55-35.17,62.11-35.17,62.11l3.39,12.33,3.76,13.69,4.85-.53s1.33-2.41,3.42-5.68c3.23-5.05,8.26-12.16,12.95-15.69,7.72-5.81,17.63-22.75,21.39-49.24.14-.93.29-1.83.47-2.69,4.83-23.8,25.54-23.82,25.54-23.82C588.9,485.06,575.65,489,565.37,495.31Z" fill="#31a683"/><path d="M533.58,569.75l3.76,13.69,4.85-.53s1.33-2.41,3.42-5.68c14.28-69.79,31.92-82.91,32.47-83.31C550.1,509.24,537.43,553.28,533.58,569.75Z" fill="#208c68"/><path d="M534.07,564.27c-9.2-9.2-24.47-19.22-43.18-11.58-25.07,10.22-30.41,40.43-31.55,51.84a1.47,1.47,0,0,0,2.55,1.13c9.5-10.47,41.36-41.64,74.17-29,1.23.47,2.45,1,3.68,1.59a3.92,3.92,0,0,0,1.38.4,2.1,2.1,0,0,0,2.16-1,2.26,2.26,0,0,0-.14-2.3A71.45,71.45,0,0,0,534.07,564.27Z" fill="#31a683"/><path d="M472.85,579.44c2.37-3.21,28.72-35.52,63.21-2.79,1.23.47,2.45,1,3.68,1.59a3.92,3.92,0,0,0,1.38.4,2.1,2.1,0,0,0,2.16-1,2.26,2.26,0,0,0-.14-2.3S505.65,533.88,472.85,579.44Z" fill="#208c68"/><path d="M472.85,579.44a.86.86,0,0,1-.07.1A.36.36,0,0,0,472.85,579.44Z" fill="#208c68"/><path d="M472.72,579.62l.06-.08Z" fill="#3c7219"/><path d="M472.72,579.62l0,.06Z" fill="#3c7219"/><path d="M577.71,533.11c-21.8,2.48-31.11,20-35.07,33.53A77.69,77.69,0,0,0,539.79,582a2.47,2.47,0,0,0,1.07,2.26,2.29,2.29,0,0,0,2.56-.21,4.26,4.26,0,0,0,1.1-1.1q1.29-1.81,2.67-3.43c24.66-29.13,71.23-16.06,85.73-11a1.6,1.6,0,0,0,1.84-2.41C627.73,555.75,606.9,529.78,577.71,533.11Z" fill="#208c68"/><path d="M542.64,566.64A77.69,77.69,0,0,0,539.79,582a2.47,2.47,0,0,0,1.07,2.26,2.29,2.29,0,0,0,2.56-.21,4.26,4.26,0,0,0,1.1-1.1q1.29-1.81,2.67-3.43c15.94-49.68,58.58-31.66,61.75-30.24C569.71,530.21,550.91,550.5,542.64,566.64Z" fill="#166d4d"/><path d="M475.36,533c49.25,11.7,63.65,40.9,63.65,40.9C522.42,539.59,475.36,533,475.36,533Z" fill="#03211b"/><path d="M481.31,526.14a.48.48,0,0,0-.76.46c.73,4.3,2.67,5.4,3.57,5.68a.47.47,0,0,0,.61-.37C484.89,531,484.81,528.75,481.31,526.14Z" fill="#03211b"/><path d="M486.78,527.56a.48.48,0,0,0-.8.4c.39,4.35,2.24,5.59,3.12,5.94a.47.47,0,0,0,.63-.32C490,532.67,490.05,530.44,486.78,527.56Z" fill="#03211b"/><path d="M492.15,530.23c-.3,3.88,1.14,5.25,1.86,5.69a.42.42,0,0,0,.61-.19c.35-.77.75-2.72-1.71-5.74A.43.43,0,0,0,492.15,530.23Z" fill="#03211b"/><path d="M497.82,532c-1.06,3.75.08,5.38.7,6a.41.41,0,0,0,.63-.06c.49-.69,1.27-2.52-.54-6A.43.43,0,0,0,497.82,532Z" fill="#03211b"/><path d="M503.29,534.31c-1.54,3.33-.71,5-.22,5.63a.39.39,0,0,0,.6,0c.56-.57,1.55-2.15.36-5.62A.4.4,0,0,0,503.29,534.31Z" fill="#03211b"/><path d="M509.94,535.89c-3,2.08-3.17,3.94-3.06,4.73a.4.4,0,0,0,.5.33c.77-.2,2.43-1.06,3.19-4.65A.41.41,0,0,0,509.94,535.89Z" fill="#03211b"/><path d="M481.38,536.56c-.89-.33-3.09-.64-6.3,2.33a.48.48,0,0,0,.32.83c4.37.06,5.8-1.65,6.24-2.49A.48.48,0,0,0,481.38,536.56Z" fill="#03211b"/><path d="M486.32,538.31c-.91-.26-3.14-.4-6.1,2.82a.48.48,0,0,0,.38.8c4.36-.28,5.66-2.1,6-3A.49.49,0,0,0,486.32,538.31Z" fill="#03211b"/><path d="M491.45,539.72c-.84-.1-2.82.11-4.95,3.38a.43.43,0,0,0,.45.65c3.8-.9,4.67-2.69,4.87-3.51A.42.42,0,0,0,491.45,539.72Z" fill="#03211b"/><path d="M496.29,540.82c-.84.08-2.74.67-4.19,4.3a.43.43,0,0,0,.58.55c3.55-1.63,4-3.56,4.07-4.41A.43.43,0,0,0,496.29,540.82Z" fill="#03211b"/><path d="M500.32,543c-.78.33-2.41,1.47-2.69,5.36a.43.43,0,0,0,.71.35c2.89-2.63,2.78-4.61,2.55-5.43A.43.43,0,0,0,500.32,543Z" fill="#03211b"/><path d="M505.23,544.93c-.74.4-2.26,1.69-2.17,5.6a.42.42,0,0,0,.74.27c2.63-2.88,2.33-4.85,2-5.64A.43.43,0,0,0,505.23,544.93Z" fill="#03211b"/><path d="M543.75,575.61s4.21-41.33,57.88-77.26C601.63,498.35,548.31,527.21,543.75,575.61Z" fill="#03211b"/><path d="M591.47,492.82c-3,4.69-2.13,7.39-1.52,8.43a.61.61,0,0,0,.89.17c1-.74,2.79-2.91,1.74-8.38A.61.61,0,0,0,591.47,492.82Z" fill="#03211b"/><path d="M585.57,497c-2.64,4.9-1.55,7.52-.85,8.51a.61.61,0,0,0,.9.11c.89-.81,2.55-3.13,1.07-8.5A.6.6,0,0,0,585.57,497Z" fill="#03211b"/><path d="M579.31,502.6c-1.59,4.71-.24,6.86.52,7.62a.53.53,0,0,0,.81,0c.67-.85,1.78-3.13-.32-7.64A.54.54,0,0,0,579.31,502.6Z" fill="#03211b"/><path d="M573.38,507.49c-.64,4.93,1.11,6.77,2,7.38a.54.54,0,0,0,.78-.21c.49-1,1.13-3.41-1.81-7.42A.54.54,0,0,0,573.38,507.49Z" fill="#03211b"/><path d="M568,512.76c.12,4.68,2,6.13,2.94,6.57a.52.52,0,0,0,.7-.31c.31-1,.55-3.34-2.77-6.64A.51.51,0,0,0,568,512.76Z" fill="#03211b"/><path d="M561.57,517.23a.51.51,0,0,0-.55.78c2.5,4,4.87,4.23,5.88,4.14a.52.52,0,0,0,.45-.62C567.12,520.54,566.11,518.37,561.57,517.23Z" fill="#03211b"/><path d="M604.6,505.29c-5.16-2.12-7.66-.76-8.57,0a.61.61,0,0,0,0,.91c.89.81,3.37,2.21,8.56.2A.61.61,0,0,0,604.6,505.29Z" fill="#03211b"/><path d="M599.45,510.26c-5-2.52-7.57-1.37-8.55-.65a.61.61,0,0,0-.08.91c.83.87,3.19,2.47,8.53.87A.61.61,0,0,0,599.45,510.26Z" fill="#03211b"/><path d="M592.82,515.41c-4-3-6.47-2.32-7.43-1.84a.55.55,0,0,0-.21.79c.61.9,2.44,2.65,7.38,2A.55.55,0,0,0,592.82,515.41Z" fill="#03211b"/><path d="M580.1,517.06a.54.54,0,0,0-.36.73c.41,1,1.87,3.08,6.83,3.45a.55.55,0,0,0,.45-.91C583.68,516.63,581.14,516.77,580.1,517.06Z" fill="#03211b"/><path d="M576.24,521.42a.54.54,0,0,0-.56.59c.09,1.07.84,3.5,5.47,5.35a.54.54,0,0,0,.7-.73C579.78,522.1,577.32,521.46,576.24,521.42Z" fill="#03211b"/><path d="M571.24,526a.55.55,0,0,0-.62.54c0,1.07.51,3.56,4.94,5.84a.54.54,0,0,0,.77-.66C574.69,527,572.31,526.1,571.24,526Z" fill="#03211b"/><path d="M538,603.33c21.51-72.92-39.13-145.85-39.13-145.85C556,540.87,538,603.33,538,603.33Z" fill="#03211b"/><path d="M515.14,455c-4.71,7.34-3.32,11.56-2.36,13.18a1,1,0,0,0,1.4.27c1.5-1.15,4.35-4.56,2.7-13.11A1,1,0,0,0,515.14,455Z" fill="#03211b"/><path d="M521.33,464.33c-5.26,6.94-4.2,11.26-3.38,13a1,1,0,0,0,1.38.37c1.58-1,4.69-4.2,3.71-12.86A1,1,0,0,0,521.33,464.33Z" fill="#03211b"/><path d="M527.41,476c-5.67,5.33-5.38,9.29-4.9,10.91a.85.85,0,0,0,1.15.54c1.55-.68,4.76-3,5.19-10.78A.86.86,0,0,0,527.41,476Z" fill="#03211b"/><path d="M533.34,486.25c-6.6,4.11-7.1,8.05-7,9.73a.84.84,0,0,0,1,.75c1.65-.36,5.26-2,7.21-9.54A.85.85,0,0,0,533.34,486.25Z" fill="#03211b"/><path d="M538.37,496.93c-6.73,2.86-7.77,6.45-7.87,8a.8.8,0,0,0,.84.85c1.58-.1,5.18-1.11,8.08-7.83A.8.8,0,0,0,538.37,496.93Z" fill="#03211b"/><path d="M546.09,508.2c-7.25-1-10,1.57-10.88,2.88a.8.8,0,0,0,.29,1.16c1.41.72,5,1.69,11-2.6A.8.8,0,0,0,546.09,508.2Z" fill="#03211b"/><path d="M490.56,465.84a1,1,0,0,0-.64,1.66c6.37,5.95,10.78,5.34,12.56,4.69a1,1,0,0,0,.51-1.33C502.12,469.18,499.28,465.76,490.56,465.84Z" fill="#03211b"/><path d="M495.15,476a1,1,0,0,0-.51,1.7c6.82,5.44,11.17,4.49,12.89,3.7a1,1,0,0,0,.41-1.37C506.94,478.47,503.84,475.28,495.15,476Z" fill="#03211b"/><path d="M501.78,487.38a.86.86,0,0,0-.2,1.58c6.81,3.77,10.5,2.29,11.9,1.34a.85.85,0,0,0,.16-1.26C512.52,487.77,509.32,485.42,501.78,487.38Z" fill="#03211b"/><path d="M519.3,497.17c-1.35-1-4.95-2.69-11.95.72a.85.85,0,0,0,.11,1.58c7.43,2.36,10.75.17,11.93-1A.85.85,0,0,0,519.3,497.17Z" fill="#03211b"/><path d="M522.36,505.75c-1.59-.57-5.53-1.07-11.17,4.3a.86.86,0,0,0,.59,1.48c7.79,0,10.3-3.09,11.06-4.6A.85.85,0,0,0,522.36,505.75Z" fill="#03211b"/><path d="M527,515.24c-1.63-.41-5.61-.54-10.71,5.34A.85.85,0,0,0,517,522c7.76-.74,10-4,10.57-5.62A.84.84,0,0,0,527,515.24Z" fill="#03211b"/><rect x="519.41" y="572.42" width="45.93" height="67.47" rx="3.58" fill="#171c80"/><g opacity="0.2"><path d="M561.75,572.42h-4.21c-.36,13.78-4.44,52.25-38.13,61.67v2.22a3.58,3.58,0,0,0,3.58,3.58h38.76a3.58,3.58,0,0,0,3.59-3.58V576A3.58,3.58,0,0,0,561.75,572.42Z"/></g></svg>